<svg xmlns="http://www.w3.org/2000/svg" width="375" height="375" version="1.0"><path d="M299.745 186.53c.01-64.222-50.246-116.29-112.244-116.29S75.247 122.309 75.257 186.53c-.01 64.22 50.246 116.288 112.244 116.288s112.254-52.067 112.244-116.289z" style="fill:none;fill-opacity:.75;fill-rule:evenodd;stroke:#000;stroke-width:12.500001;stroke-linecap:butt;stroke-linejoin:miter;stroke-miterlimit:4;stroke-opacity:1"/><path d="M77.244 63.122v19.723h8.93c3.304 0 5.859-.856 7.664-2.567 1.804-1.71 2.707-4.148 2.707-7.312 0-3.14-.903-5.567-2.707-7.278-1.805-1.71-4.36-2.566-7.664-2.566h-8.93m-7.102-5.836h16.032c5.882 0 10.324 1.336 13.324 4.008 3.023 2.648 4.535 6.539 4.535 11.672 0 5.18-1.512 9.093-4.535 11.742-3 2.648-7.442 3.973-13.324 3.973h-8.93v21.093h-7.102V57.286" style="font-size:72px;font-style:normal;font-variant:normal;font-weight:400;font-stretch:normal;line-height:100%;writing-mode:lr-tb;text-anchor:start;fill:#000;fill-opacity:1;stroke:none;stroke-width:1pt;stroke-linecap:butt;stroke-linejoin:miter;stroke-opacity:1;font-family:Bitstream Vera Sans" transform="scale(2.24083)"/><path d="M78.37 328.114h220.818M78.37 351.265h220.818" style="fill:none;fill-opacity:.75;fill-rule:evenodd;stroke:#000;stroke-width:12.715483;stroke-linecap:round;stroke-linejoin:miter;stroke-miterlimit:4;stroke-opacity:1"/></svg>