<svg xmlns="http://www.w3.org/2000/svg"   version="1.0" viewBox="0 0 375 375" width="100%" height="100%" preserveAspectRatio="xMidYMid meet"><path d="M297.025 187.186c.01-62.665-49.029-113.47-109.524-113.47S77.967 124.52 77.977 187.185c-.01 62.665 49.029 113.47 109.524 113.47s109.534-50.805 109.524-113.47z" style="fill:none;fill-opacity:.75;fill-rule:evenodd;stroke:currentColor;stroke-width:9.7576847;stroke-linecap:butt;stroke-linejoin:miter;stroke-miterlimit:4;stroke-opacity:1"/><path d="M63.728 63.728h247.544v247.544H63.728z" style="fill:none;fill-opacity:.75;fill-rule:evenodd;stroke:currentColor;stroke-width:12.5;stroke-linecap:butt;stroke-linejoin:miter;stroke-miterlimit:4;stroke-dasharray:none;stroke-opacity:1"/><path d="M206.25 187.5a18.75 18.75 0 1 1-37.5 0 18.75 18.75 0 1 1 37.5 0z" style="fill:currentColor;fill-opacity:1;fill-rule:evenodd;stroke:currentColor;stroke-width:1.25;stroke-linecap:butt;stroke-linejoin:miter;stroke-miterlimit:4;stroke-opacity:1" transform="translate(-37.5)"/><path d="M206.25 187.5a18.75 18.75 0 1 1-37.5 0 18.75 18.75 0 1 1 37.5 0z" style="fill:currentColor;fill-opacity:1;fill-rule:evenodd;stroke:currentColor;stroke-width:1.25;stroke-linecap:butt;stroke-linejoin:miter;stroke-miterlimit:4;stroke-opacity:1" transform="translate(37.5)"/></svg>
