<svg xmlns="http://www.w3.org/2000/svg" width="682.667" height="682.667" version="1.0" viewBox="0 0 512 512"><path d="M5.3 112.9c-3.4 2.1-4.7 4.9-4.5 9.6.2 4.7 56 282.2 57.2 284.4 2.9 5.5-10.8 5.1 197 5.1 209.4 0 194.4.4 196.8-5.7.7-1.5 14.3-66.4 30.3-144.2 32-155.7 30.3-145 23.5-149.2-3.9-2.4-6.3-2.4-10.3.1-3.9 2.3-4 2.5-10.7 35l-5.2 25.5-3.5-.3c-5.6-.4-11.6-4-22.8-13.4-17.7-14.9-27.4-19.1-44.1-19.2-16.4-.1-27.1 3.9-40.5 14.9-21 17.3-24.7 19-39.5 18.3-11.1-.5-16.3-3-28.6-13.6-5-4.3-11.3-9.2-14.1-11-13.5-8.7-32.6-11.2-48.7-6.5-7.9 2.3-16.2 7.4-27.7 17.1-14.9 12.5-17.7 13.7-31.4 13.7-10 0-11.5-.3-16.6-2.8-3.1-1.5-9.2-5.8-13.6-9.6-18.5-16-28.2-20.3-46.3-20.5-17.7-.1-26.4 3.6-45.4 19.3-11 9.1-17 12.7-22.1 13.3l-2.8.3-5.8-28.4c-4.9-24.2-6.1-28.7-8.1-30.8-3.4-3.3-8.5-3.9-12.5-1.4zM118 164.1c3 1.5 9.6 6.1 14.5 10.4 18 15.4 28 19.8 45.5 19.9 17.7.1 27.4-4 45.4-19.2 5.2-4.5 11.9-9.4 14.8-10.9 4.9-2.6 6.2-2.8 16.8-2.8 10.5 0 11.9.2 16.5 2.7 2.8 1.4 10 6.7 16 11.8 17.1 14.3 26.9 18.4 44 18.4s26.9-4.1 44-18.5c6.1-5 13.5-10.4 16.5-11.8 4.9-2.3 6.7-2.6 16.5-2.6 10.1 0 11.4.2 16.3 2.8 2.9 1.5 9.6 6.4 14.8 10.9 12.1 10.2 18.9 14.3 28.2 17.1 7.2 2.1 7.2 2.1 6.6 5.2-.3 1.6-9.4 46-20.2 98.5l-19.7 95.5-179.6.3-179.6.2-19.7-98.2c-10.8-54.1-19.6-98.6-19.6-99 0-.3 3-1.5 6.8-2.7 8.7-2.7 14.8-6.3 25.2-15.1 17.2-14.5 20.9-16.1 35-15.7 7.9.2 10.5.7 15 2.8z"/><path d="M234.3 201.1c-3.9 1.1-8.1 6-8.7 10.2-.3 1.8-.7 18.9-1 38.2-.3 19.2-1.1 42.9-1.7 52.5-.6 9.6-1.2 23.8-1.3 31.6-.1 13.4 0 14.2 2.4 17.7 1.4 2.1 4.5 4.7 7 6 4 1.9 6 2.2 17 2.2 26-.1 66.3-8.7 73.2-15.5 5.2-5.2 4.9-13.1-.7-18.7-4.3-4.3-8.7-4.4-23.3-.3-15.2 4.2-29.2 6.9-40.1 7.8l-9.3.8.6-7.6c2-23 2.7-38.4 3.3-75 .7-46.1.8-45.5-7-49.1-4.6-2.1-5.7-2.1-10.4-.8z"/></svg>