<svg xmlns="http://www.w3.org/2000/svg" width="375" height="375" version="1.0"><path d="M111.85 98.3H300l37.5 182.95h-300S93.75 187.5 150 187.5h168.75" style="fill:none;fill-opacity:.75;fill-rule:evenodd;stroke:#000;stroke-width:12.5;stroke-linecap:round;stroke-linejoin:round;stroke-miterlimit:4;stroke-opacity:1"/><path d="M177.787 243.75c0-10.355-7.735-18.75-17.275-18.75s-17.275 8.395-17.275 18.75 7.734 18.75 17.275 18.75c9.54 0 17.275-8.395 17.275-18.75z" style="fill:#000;fill-opacity:.75;fill-rule:evenodd;stroke:#000;stroke-width:1pt;stroke-linecap:butt;stroke-linejoin:miter;stroke-opacity:1" transform="translate(-14.262 -8.125)"/><path d="M177.787 243.75c0-10.355-7.735-18.75-17.275-18.75s-17.275 8.395-17.275 18.75 7.734 18.75 17.275 18.75c9.54 0 17.275-8.395 17.275-18.75z" style="fill:#000;fill-opacity:.75;fill-rule:evenodd;stroke:#000;stroke-width:1pt;stroke-linecap:butt;stroke-linejoin:miter;stroke-opacity:1" transform="translate(46.588 -8.125)"/><path d="M177.787 243.75c0-10.355-7.735-18.75-17.275-18.75s-17.275 8.395-17.275 18.75 7.734 18.75 17.275 18.75c9.54 0 17.275-8.395 17.275-18.75z" style="fill:#000;fill-opacity:.75;fill-rule:evenodd;stroke:#000;stroke-width:1pt;stroke-linecap:butt;stroke-linejoin:miter;stroke-opacity:1" transform="translate(109.488 -8.125)"/></svg>