<svg xmlns="http://www.w3.org/2000/svg" version="1.0" width="375" height="375"><path d="m164.119 78.999-6.359 29.83c-5.274 7.303-12.622 13.571-14.869 22.534-2.345 6.294-4.756 12.57-6.828 18.953l4.3 43.196c4.56 4.737 14.217 5.079 16.195-2.225 1.652-6.813-1.046-13.809.548-20.658-.078-4.465-1.98-15.587 2.067-15.57.413 7.515-1.21 14.977-1.4 22.492-1.06 9.156-.982 18.384.435 27.496l4.44 43.266c4.492 4.317 13.993 2.498 14.225-4.233.218-7.566-.563-15.136-.465-22.716l-.87-35.216 3.565 71.444c4.738 4.02 13.795 4.657 15.556-2.605 1.15-7.097-.176-14.339.55-21.502l.668-46.533 1.673 64.581c5.44 4.4 17.62 2.444 15.87-6.11l2.127-57.928.334 51.767c5.933 2.945 15.403.14 13.966-7.505 2.212-23.268 2.999-46.727 7.683-69.71 1.729-6.852-1.106-13.535-1.987-20.302-1.109-7.49-3.791-14.596-7.444-21.272-3.18-5.823-5.338-12.047-5.513-18.65l-2.322-20.08" style="fill:#fff;fill-opacity:0;fill-rule:nonzero;stroke:#000;stroke-width:6.6433678;stroke-linecap:round;stroke-linejoin:round;stroke-miterlimit:4;stroke-opacity:1" fill="none"/><path d="m37.456 106.87 34.398 171.987h230.314l35.434-171.986" style="fill:none;fill-opacity:1;fill-rule:evenodd;stroke:#000;stroke-width:12.5;stroke-linecap:round;stroke-linejoin:round;stroke-miterlimit:4;stroke-dashoffset:0;stroke-opacity:1"/><path d="M45.76 145.547c23.458 0 23.458-20.89 46.916-20.89s23.458 20.89 46.917 20.89" style="fill:none;fill-opacity:1;fill-rule:evenodd;stroke:#140911;stroke-width:12.5;stroke-linecap:butt;stroke-linejoin:miter;stroke-miterlimit:4;stroke-opacity:1"/><path d="M234.315 145.547c23.458 0 23.458-20.89 46.916-20.89 23.459 0 23.459 20.89 46.917 20.89" style="fill:none;fill-opacity:1;fill-rule:evenodd;stroke:#1b0c16;stroke-width:12.5;stroke-linecap:butt;stroke-linejoin:miter;stroke-miterlimit:4;stroke-opacity:1"/></svg>