<svg xmlns="http://www.w3.org/2000/svg" width="375" height="375" version="1.0"><path d="m131.26 123.34-17.93 28.02h17.93v-28.02m-1.864-6.187h8.93v34.207h7.488v5.906h-7.488v12.375h-7.067v-12.375h-23.695v-6.855l21.832-33.258m43.383 4.676c-3.656 0-6.41 1.805-8.262 5.414-1.828 3.586-2.742 8.988-2.742 16.207 0 7.195.914 12.598 2.742 16.207 1.852 3.586 4.606 5.379 8.262 5.379 3.68 0 6.433-1.793 8.262-5.379 1.851-3.61 2.777-9.012 2.777-16.207 0-7.219-.926-12.621-2.778-16.207-1.828-3.61-4.582-5.414-8.261-5.414m0-5.625c5.883 0 10.37 2.332 13.465 6.996 3.117 4.64 4.675 11.39 4.675 20.25 0 8.836-1.558 15.586-4.675 20.25-3.094 4.64-7.582 6.96-13.465 6.96s-10.383-2.32-13.5-6.96c-3.094-4.664-4.64-11.414-4.64-20.25 0-8.86 1.546-15.61 4.64-20.25 3.117-4.664 7.617-6.996 13.5-6.996" style="font-size:72px;font-style:normal;font-variant:normal;font-weight:400;font-stretch:normal;writing-mode:lr-tb;text-anchor:start;fill:#000;fill-opacity:1;stroke:none;stroke-width:1pt;stroke-linecap:butt;stroke-linejoin:miter;stroke-opacity:1;font-family:Bitstream Vera Sans" transform="scale(1.25574 1.4535)"/><path d="M46.352 145.547c23.458 0 23.458-20.89 46.917-20.89 23.458 0 23.458 20.89 46.916 20.89 23.459 0 23.459-20.89 46.917-20.89 23.458 0 23.458 20.89 46.916 20.89 23.459 0 23.459-20.89 46.917-20.89 23.458 0 23.458 20.89 46.916 20.89" style="fill:none;fill-opacity:1;fill-rule:evenodd;stroke:#000;stroke-width:12.5;stroke-linecap:butt;stroke-linejoin:miter;stroke-miterlimit:4;stroke-opacity:1"/><path d="m37.456 106.87 34.398 171.987h230.314l35.434-171.986" style="fill:none;fill-opacity:1;fill-rule:evenodd;stroke:#000;stroke-width:12.5;stroke-linecap:round;stroke-linejoin:round;stroke-miterlimit:4;stroke-dashoffset:0;stroke-opacity:1"/><path d="M76.905 304.307h220.819" style="fill:none;fill-opacity:.75;fill-rule:evenodd;stroke:#000;stroke-width:12.715483;stroke-linecap:round;stroke-linejoin:miter;stroke-miterlimit:4;stroke-opacity:1"/></svg>