<svg xmlns="http://www.w3.org/2000/svg" width="375" height="375" version="1.0"><path d="M126.989 140.567c-3.188 0-5.719 1.09-7.594 3.27-1.851 2.18-2.777 5.168-2.777 8.965 0 3.773.926 6.761 2.777 8.964 1.875 2.18 4.406 3.27 7.594 3.27 3.187 0 5.707-1.09 7.559-3.27 1.875-2.203 2.812-5.191 2.812-8.964 0-3.797-.937-6.786-2.812-8.965-1.852-2.18-4.372-3.27-7.559-3.27m14.098-22.254v6.469a28.254 28.254 0 0 0-5.414-1.934 22.39 22.39 0 0 0-5.38-.668c-4.687 0-8.273 1.583-10.757 4.747-2.461 3.164-3.867 7.945-4.219 14.343 1.383-2.039 3.117-3.597 5.203-4.675 2.086-1.102 4.383-1.653 6.89-1.653 5.274 0 9.434 1.606 12.481 4.817 3.07 3.187 4.606 7.535 4.606 13.043 0 5.39-1.594 9.714-4.781 12.972-3.188 3.258-7.43 4.887-12.727 4.887-6.07 0-10.711-2.32-13.922-6.961-3.21-4.664-4.816-11.414-4.816-20.25 0-8.297 1.968-14.906 5.906-19.828 3.937-4.945 9.223-7.418 15.855-7.418 1.782 0 3.575.176 5.38.527 1.827.352 3.726.88 5.695 1.582m30.867 3.516c-3.656 0-6.41 1.805-8.262 5.414-1.828 3.586-2.742 8.988-2.742 16.207 0 7.195.914 12.598 2.742 16.207 1.852 3.586 4.606 5.379 8.262 5.379 3.68 0 6.433-1.793 8.262-5.379 1.851-3.61 2.777-9.012 2.777-16.207 0-7.219-.926-12.621-2.777-16.207-1.829-3.61-4.583-5.414-8.262-5.414m0-5.625c5.883 0 10.37 2.332 13.465 6.996 3.117 4.64 4.675 11.39 4.675 20.25 0 8.836-1.558 15.586-4.675 20.25-3.094 4.64-7.582 6.96-13.465 6.96s-10.383-2.32-13.5-6.96c-3.094-4.664-4.64-11.414-4.64-20.25 0-8.86 1.546-15.61 4.64-20.25 3.117-4.664 7.617-6.996 13.5-6.996" style="font-size:72px;font-style:normal;font-variant:normal;font-weight:400;font-stretch:normal;writing-mode:lr-tb;text-anchor:start;fill:#000;fill-opacity:1;stroke:none;stroke-width:1pt;stroke-linecap:butt;stroke-linejoin:miter;stroke-opacity:1;font-family:Bitstream Vera Sans" transform="scale(1.25574 1.4535)"/><path d="M46.352 145.547c23.458 0 23.458-20.89 46.917-20.89 23.458 0 23.458 20.89 46.916 20.89 23.459 0 23.459-20.89 46.917-20.89 23.458 0 23.458 20.89 46.916 20.89 23.459 0 23.459-20.89 46.917-20.89 23.458 0 23.458 20.89 46.916 20.89" style="fill:none;fill-opacity:1;fill-rule:evenodd;stroke:#000;stroke-width:12.5;stroke-linecap:butt;stroke-linejoin:miter;stroke-miterlimit:4;stroke-opacity:1"/><path d="m37.456 106.87 34.398 171.987h230.314l35.434-171.986" style="fill:none;fill-opacity:1;fill-rule:evenodd;stroke:#000;stroke-width:12.5;stroke-linecap:round;stroke-linejoin:round;stroke-miterlimit:4;stroke-dashoffset:0;stroke-opacity:1"/></svg>