<svg xmlns="http://www.w3.org/2000/svg" version="1.0" width="375" height="375"><path d="M132.438 141.34c3.399.727 6.047 2.239 7.946 4.536 1.921 2.297 2.882 5.133 2.882 8.508 0 5.18-1.78 9.187-5.343 12.023-3.563 2.836-8.625 4.254-15.188 4.254-2.203 0-4.476-.223-6.82-.668-2.32-.422-4.723-1.066-7.207-1.934v-6.855c1.969 1.148 4.125 2.016 6.469 2.601 2.343.586 4.792.88 7.347.88 4.453 0 7.84-.88 10.16-2.637 2.344-1.758 3.516-4.313 3.516-7.664 0-3.094-1.09-5.508-3.27-7.243-2.156-1.757-5.168-2.636-9.035-2.636h-6.117v-5.836h6.399c3.492 0 6.164-.692 8.015-2.074 1.852-1.407 2.777-3.422 2.778-6.047 0-2.696-.961-4.758-2.883-6.188-1.899-1.453-4.63-2.18-8.192-2.18-1.945 0-4.031.211-6.258.633-2.226.422-4.675 1.078-7.347 1.969v-6.328c2.695-.75 5.215-1.313 7.558-1.688 2.368-.375 4.594-.562 6.68-.562 5.39 0 9.656 1.23 12.797 3.691 3.14 2.438 4.71 5.743 4.71 9.914 0 2.907-.831 5.368-2.495 7.383-1.664 1.992-4.031 3.375-7.102 4.149m39.516-19.512c-3.656 0-6.41 1.805-8.262 5.414-1.828 3.586-2.742 8.988-2.742 16.207 0 7.195.914 12.598 2.742 16.207 1.852 3.586 4.606 5.379 8.262 5.379 3.68 0 6.433-1.793 8.262-5.379 1.851-3.61 2.777-9.012 2.777-16.207 0-7.219-.926-12.621-2.777-16.207-1.829-3.61-4.582-5.414-8.262-5.414m0-5.625c5.883 0 10.37 2.332 13.465 6.996 3.117 4.64 4.675 11.39 4.676 20.25 0 8.836-1.56 15.586-4.676 20.25-3.094 4.64-7.582 6.96-13.465 6.96s-10.383-2.32-13.5-6.96c-3.094-4.664-4.64-11.414-4.64-20.25 0-8.86 1.546-15.61 4.64-20.25 3.117-4.664 7.617-6.996 13.5-6.996" transform="scale(1.25574 1.4535)" style="font-size:72px;font-style:normal;font-variant:normal;font-weight:400;font-stretch:normal;writing-mode:lr-tb;text-anchor:start;fill:#000;fill-opacity:1;stroke:none;stroke-width:1pt;stroke-linecap:butt;stroke-linejoin:miter;stroke-opacity:1;font-family:Bitstream Vera Sans"/><path d="M46.352 145.547c23.458 0 23.458-20.89 46.917-20.89 23.458 0 23.458 20.89 46.916 20.89 23.459 0 23.459-20.89 46.917-20.89 23.458 0 23.458 20.89 46.916 20.89 23.459 0 23.459-20.89 46.917-20.89 23.458 0 23.458 20.89 46.916 20.89" style="fill:none;fill-opacity:1;fill-rule:evenodd;stroke:#000;stroke-width:12.5;stroke-linecap:butt;stroke-linejoin:miter;stroke-miterlimit:4;stroke-opacity:1"/><path d="m37.456 106.87 34.398 171.987h230.314l35.434-171.986" style="fill:none;fill-opacity:1;fill-rule:evenodd;stroke:#000;stroke-width:12.5;stroke-linecap:round;stroke-linejoin:round;stroke-miterlimit:4;stroke-dashoffset:0;stroke-opacity:1"/></svg>