<svg xmlns="http://www.w3.org/2000/svg" width="375" height="375" version="1.0"><path d="M110.993 117.153h27.879v5.977h-21.375v12.867a18.674 18.674 0 0 1 3.094-.774 17.269 17.269 0 0 1 3.093-.28c5.86 0 10.5 1.605 13.922 4.816 3.422 3.21 5.133 7.558 5.133 13.043 0 5.648-1.758 10.043-5.273 13.183-3.516 3.117-8.473 4.676-14.872 4.676-2.203 0-4.453-.188-6.75-.563a53.89 53.89 0 0 1-7.066-1.687v-7.137a27.67 27.67 0 0 0 6.54 2.567c2.25.562 4.628.843 7.136.843 4.055 0 7.265-1.066 9.633-3.199 2.367-2.133 3.55-5.027 3.55-8.683 0-3.657-1.183-6.551-3.55-8.684-2.368-2.133-5.578-3.2-9.633-3.2-1.899 0-3.797.212-5.695.634-1.875.421-3.797 1.078-5.766 1.968v-26.367m60.96 4.676c-3.655 0-6.41 1.805-8.26 5.414-1.829 3.586-2.743 8.988-2.743 16.207 0 7.195.914 12.598 2.742 16.207 1.852 3.586 4.606 5.379 8.262 5.379 3.68 0 6.433-1.793 8.262-5.379 1.851-3.61 2.777-9.012 2.777-16.207 0-7.219-.926-12.621-2.777-16.207-1.829-3.61-4.583-5.414-8.262-5.414m0-5.625c5.883 0 10.37 2.332 13.465 6.996 3.117 4.64 4.675 11.39 4.675 20.25 0 8.836-1.558 15.586-4.675 20.25-3.094 4.64-7.582 6.96-13.465 6.96s-10.383-2.32-13.5-6.96c-3.094-4.664-4.64-11.414-4.64-20.25 0-8.86 1.546-15.61 4.64-20.25 3.117-4.664 7.617-6.996 13.5-6.996" style="font-size:72px;font-style:normal;font-variant:normal;font-weight:400;font-stretch:normal;writing-mode:lr-tb;text-anchor:start;fill:#000;fill-opacity:1;stroke:none;stroke-width:1pt;stroke-linecap:butt;stroke-linejoin:miter;stroke-opacity:1;font-family:Bitstream Vera Sans" transform="scale(1.25574 1.4535)"/><path d="M46.352 145.547c23.458 0 23.458-20.89 46.917-20.89 23.458 0 23.458 20.89 46.916 20.89 23.459 0 23.459-20.89 46.917-20.89 23.458 0 23.458 20.89 46.916 20.89 23.459 0 23.459-20.89 46.917-20.89 23.458 0 23.458 20.89 46.916 20.89" style="fill:none;fill-opacity:1;fill-rule:evenodd;stroke:#000;stroke-width:12.5;stroke-linecap:butt;stroke-linejoin:miter;stroke-miterlimit:4;stroke-opacity:1"/><path d="m37.456 106.87 34.398 171.987h230.314l35.434-171.986" style="fill:none;fill-opacity:1;fill-rule:evenodd;stroke:#000;stroke-width:12.5;stroke-linecap:round;stroke-linejoin:round;stroke-miterlimit:4;stroke-dashoffset:0;stroke-opacity:1"/></svg>