<svg xmlns="http://www.w3.org/2000/svg" version="1.0" width="375" height="375"><path d="M187.5 75 56.25 318.75h262.5L187.5 75z" style="font-size:12px;fill:none;fill-rule:evenodd;stroke:#000;stroke-width:12.5;stroke-linecap:butt;stroke-linejoin:miter"/><path d="M152.063 127.686v7.489c-2.39-2.227-4.945-3.89-7.664-4.992-2.695-1.102-5.566-1.653-8.613-1.653-6 0-10.594 1.84-13.781 5.52-3.188 3.656-4.782 8.953-4.782 15.89 0 6.914 1.594 12.211 4.782 15.891 3.187 3.656 7.78 5.484 13.78 5.484 3.048 0 5.919-.55 8.614-1.652 2.719-1.102 5.274-2.766 7.664-4.992v7.418a28.92 28.92 0 0 1-7.91 3.797c-2.766.843-5.695 1.265-8.789 1.265-7.945 0-14.203-2.425-18.773-7.277-4.57-4.875-6.856-11.52-6.856-19.934 0-8.437 2.285-15.082 6.856-19.933 4.57-4.875 10.828-7.313 18.773-7.313 3.14 0 6.094.422 8.86 1.266a27.686 27.686 0 0 1 7.84 3.726m11.038-4.043h7.102v46.512h25.558v5.977h-32.66v-52.489" transform="scale(1.26774 1.58157)" style="font-size:72px;font-style:normal;font-variant:normal;font-weight:400;font-stretch:normal;writing-mode:lr-tb;text-anchor:start;fill:#000;fill-opacity:1;stroke:none;stroke-width:1pt;stroke-linecap:butt;stroke-linejoin:miter;stroke-opacity:1;font-family:Bitstream Vera Sans"/></svg>