<svg xmlns="http://www.w3.org/2000/svg" width="375" height="375" version="1.0"><svg><path d="M297.025 187.186c.01-62.665-49.029-113.47-109.524-113.47S77.967 124.52 77.977 187.185c-.01 62.665 49.029 113.47 109.524 113.47s109.534-50.805 109.524-113.47z" style="fill:none;fill-opacity:.75;fill-rule:evenodd;stroke:#000;stroke-width:9.7576847;stroke-linecap:butt;stroke-linejoin:miter;stroke-miterlimit:4;stroke-opacity:1"/><path d="M63.728 63.728h247.544v247.544H63.728z" style="fill:none;fill-opacity:.75;fill-rule:evenodd;stroke:#000;stroke-width:12.5;stroke-linecap:butt;stroke-linejoin:miter;stroke-miterlimit:4;stroke-dasharray:none;stroke-opacity:1"/><path d="M162.75 187.5c0 14.434-15.625 23.455-28.125 16.238a18.75 18.75 0 0 1-9.375-16.238c0-14.434 15.625-23.455 28.125-16.238a18.75 18.75 0 0 1 9.375 16.238Zm43.196.233c0 14.434-15.625 23.455-28.125 16.238a18.748 18.748 0 0 1-9.375-16.238c0-14.434 15.625-23.455 28.125-16.238a18.75 18.75 0 0 1 9.375 16.238Z" style="fill:#000;fill-opacity:1;fill-rule:evenodd;stroke:#000;stroke-width:1.25;stroke-linecap:butt;stroke-linejoin:miter;stroke-miterlimit:4;stroke-opacity:1"/><path d="M248.752 187.82c0 14.434-15.625 23.455-28.125 16.238a18.748 18.748 0 0 1-9.375-16.238c0-14.434 15.625-23.455 28.125-16.238a18.75 18.75 0 0 1 9.375 16.238Z" data-bx-origin="-2.435 0.369" style="fill:#000;fill-opacity:1;fill-rule:evenodd;stroke:#000;stroke-width:1.25;stroke-linecap:butt;stroke-linejoin:miter;stroke-miterlimit:4;stroke-opacity:1"/></svg></svg>